<svg xmlns="http://www.w3.org/2000/svg" viewBox="0 0 81.42 33.22"><defs><style>.cls-1{fill:#29292a;}</style></defs><title>Fichier 1</title><g id="Calque_2" data-name="Calque 2"><g id="Logo_DG"><path class="cls-1" d="M18.4,15.16H15.87V.26H18.4Z"/><path class="cls-1" d="M33.52,2.21,31.92,4a4.93,4.93,0,0,0-3.71-1.7c-3,0-5,2.25-5,5.39a5.22,5.22,0,0,0,8.16,4.46V9.26H27.85V7.07h6v6.37a7.73,7.73,0,0,1-5.48,2,7.51,7.51,0,0,1-7.78-7.7A7.4,7.4,0,0,1,28.21,0,6.93,6.93,0,0,1,33.52,2.21Z"/><path class="cls-1" d="M39.22,15.16H36.68V.26h2.54Z"/><path class="cls-1" d="M53.77,2.51H48.72V15.16H46.19V2.51h-5V.26H53.77Z"/><path class="cls-1" d="M65.59,15.16H62.83l-1.18-2.7H55.41l-1.17,2.7H51.48L58.49,0h.08Zm-9.31-4.78h4.5L58.53,5.21Z"/><path class="cls-1" d="M69.86,12.91h6.75v2.25H67.33V.26h2.53Z"/><path class="cls-1" d="M12.89,20l-1.6,1.83a4.93,4.93,0,0,0-3.71-1.7c-3,0-5,2.25-5,5.39a5.07,5.07,0,0,0,5.21,5.37,5.12,5.12,0,0,0,3-.91V27.06H7.22V24.87h6v6.36a7.74,7.74,0,0,1-5.48,2A7.5,7.5,0,0,1,0,25.52,7.4,7.4,0,0,1,7.58,17.8,7,7,0,0,1,12.89,20Z"/><path class="cls-1" d="M28.4,33H25.64l-1.18-2.7H18.22L17.05,33H14.29l7-15.16h.08Zm-9.31-4.79h4.5L21.34,23Z"/><path class="cls-1" d="M40.42,22.78a4.42,4.42,0,0,1-2.88,4.28L41.13,33h-3l-3.33-5.48H32.31V33H29.79V18.06h5.36C38.06,18.06,40.42,19.74,40.42,22.78Zm-8.11-2.51v5h2.61c1.77,0,2.92-.85,2.92-2.49s-1.17-2.51-2.92-2.51Z"/><path class="cls-1" d="M67.27,20.39H60.4V24.3h6v2.21h-6v4.11h7V33H57.87V18.06h9.4Z"/><path class="cls-1" d="M81.42,33.22h-.08l-9.08-9.51V33H69.72V17.8h.08l9.08,9.48V18.06h2.54Z"/><path class="cls-1" d="M5.3.26H1V9H3.44V2.75H5.3c3.6,0,5.58,1.74,5.58,5s-1.94,5-5.58,5H1v2.48H5.3c5.1,0,8.07-2.75,8.07-7.45S10.36.26,5.3.26Z"/><path class="cls-1" d="M47.29,18.06H43v8.69h2.48V20.54h1.86c3.61,0,5.59,1.74,5.59,5s-1.94,5-5.59,5H43V33h4.34c5.11,0,8.07-2.75,8.07-7.45S52.36,18.06,47.29,18.06Z"/></g></g></svg>